<?xml version="1.0" encoding="utf-8"?>
<!-- Generator: Adobe Illustrator 25.3.1, SVG Export Plug-In . SVG Version: 6.00 Build 0)  -->
<svg version="1.1" xmlns="http://www.w3.org/2000/svg" xmlns:xlink="http://www.w3.org/1999/xlink" x="0px" y="0px"
	 viewBox="0 0 490 490" style="enable-background:new 0 0 490 490;" xml:space="preserve">
<style type="text/css">
	.st0{display:none;}
	.st1{display:inline;}
	.st2{fill:none;stroke:#000000;stroke-width:10;stroke-linecap:round;stroke-linejoin:round;stroke-miterlimit:10;}
</style>
<g id="Capa_1" class="st0">
	<g class="st1">
		<path d="M483,431.6h-81l28.7-9c4.8-1.5,8.6-4.7,11-9.1c2.3-4.4,2.8-9.4,1.3-14.2L336.1,57.4c-2.4-7.8-9.6-13.1-17.8-13.1
			c-1.9,0-3.8,0.3-5.6,0.9l-65.7,20.5c-0.6,0.2-1.2,0.4-1.8,0.7v-2.7c0-10.3-8.3-18.6-18.6-18.6h-69.2c-4.4,0-8.4,1.5-11.6,4.1
			c-3.2-2.6-7.2-4.1-11.6-4.1H64.9c-10.3,0-18.6,8.3-18.6,18.6v367.9H7c-3.9,0-7,3.1-7,7s3.1,7,7,7h476c3.9,0,7-3.1,7-7
			C490,434.8,486.9,431.6,483,431.6z M429.2,407c-0.6,1.1-1.5,1.9-2.7,2.3l-65.7,20.5c-0.4,0.1-0.9,0.2-1.4,0.2
			c-2,0-3.8-1.3-4.4-3.3l-78.8-252.1l74.5-23.3l78.8,252.1C429.9,404.7,429.8,405.9,429.2,407z M346.6,138.1l-74.5,23.3l-8.5-27.3
			l74.5-23.3L346.6,138.1z M251.3,79.1L317,58.6c0.5-0.1,0.9-0.2,1.4-0.2c2,0,3.8,1.3,4.4,3.2l11.2,35.9l-74.5,23.3l-11.2-35.8
			C247.5,82.5,248.8,79.9,251.3,79.1z M341.9,431.6h-96.7V122.3L341.9,431.6z M152.8,207.6h78.4v19.5h-78.4V207.6z M231.3,193.6
			h-78.4v-68.5h78.4V193.6z M138.8,143.7H60.2v-18.6h78.6V143.7z M60.2,157.7h78.6v18.6H60.2V157.7z M152.8,241.1h78.4v190.5h-78.4
			V241.1z M157.4,59.1h69.2c2.5,0,4.6,2.1,4.6,4.6v47.4h-78.4V63.7C152.8,61.2,154.9,59.1,157.4,59.1z M64.9,59.1h69.3
			c2.6,0,4.6,2.1,4.6,4.6v47.4H60.2V63.7C60.2,61.2,62.3,59.1,64.9,59.1z M60.2,190.3h78.6v241.3H60.2V190.3z"/>
	</g>
</g>
<g id="Layer_2">
	<path class="st2" d="M143.7,431H87.3c-6.3,0-11.3-5.1-11.3-11.3V71.3C76,65.1,81.1,60,87.3,60h56.4c6.3,0,11.3,5.1,11.3,11.3v348.4
		C155,425.9,149.9,431,143.7,431z M234,418.7V70.3c0-6.3-5.1-11.3-11.3-11.3h-56.4c-6.3,0-11.3,5.1-11.3,11.3v348.4
		c0,6.3,5.1,11.3,11.3,11.3h56.4C228.9,430,234,424.9,234,418.7z M412.9,399.2L309.3,66.6c-1.9-6-8.2-9.3-14.1-7.4l-53.5,16.7
		c-6,1.9-9.3,8.2-7.4,14.1l103.6,332.6c1.9,6,8.2,9.3,14.1,7.4l53.5-16.7C411.4,411.5,414.7,405.1,412.9,399.2z M76.6,114.5
		c28.2,9.1,50.1,9.3,78.6,0.9 M76.6,157.1c28.2,9.1,50.1,9.3,78.6,0.9 M76.6,379.9c28.2,9.1,49.5,8.4,78,0 M155.2,114.9
		c28.2,9.1,50.1,9.3,78.6,0.9 M155.2,157.5c28.2,9.1,50.1,9.3,78.6,0.9 M155.2,380.4c28.2,9.1,50.1,9.4,78.6,1 M248.9,136.9
		c28.4,0.6,51.9-6.4,75.3-22.5 M262,177.5c28.4,0.6,51.5-6.2,74.9-22.3 M327.9,390.4c28.4,0.6,51.9-6.4,75.3-22.5"/>
</g>
</svg>
