<?xml version="1.0" encoding="utf-8"?>
<!-- Generator: Adobe Illustrator 25.3.1, SVG Export Plug-In . SVG Version: 6.00 Build 0)  -->
<svg version="1.1" id="Layer_5" xmlns="http://www.w3.org/2000/svg" xmlns:xlink="http://www.w3.org/1999/xlink" x="0px" y="0px"
	 viewBox="0 0 612 612" style="enable-background:new 0 0 612 612;" xml:space="preserve">
<style type="text/css">
	.st0{fill:none;stroke:#231F20;stroke-width:15;stroke-linecap:round;stroke-linejoin:round;stroke-miterlimit:10;}
</style>
<g>
	<path class="st0" d="M194,428.7c0-37.7,37.4-37.4,37.4-37.4s180.5,0,186.3,0V157.7c0-6.5-5.3-11.7-11.7-11.7H228.9
		c-19.3,0-35,15.7-35,35v251.7c0,19.3,15.7,35,35,35h188.8"/>
	<path class="st0" d="M379.9,314.9c0.5,26.4-20.5,48.1-46.9,48.6c-26.4,0.5-48.1-20.5-48.6-46.9c-0.5-26.4,20.5-48.1,46.9-48.6
		S379.4,288.5,379.9,314.9z M409.9,390.6l-43.3-41.8"/>
</g>
</svg>
