<?xml version="1.0" encoding="utf-8"?>
<!-- Generator: Adobe Illustrator 25.3.1, SVG Export Plug-In . SVG Version: 6.00 Build 0)  -->
<svg version="1.1" id="Layer_2_1_" xmlns="http://www.w3.org/2000/svg" xmlns:xlink="http://www.w3.org/1999/xlink" x="0px" y="0px"
	 viewBox="0 0 512 512" style="enable-background:new 0 0 512 512;" xml:space="preserve">
<style type="text/css">
	.st0{fill:none;stroke:#231F20;stroke-width:30;stroke-miterlimit:10;}
	.st1{fill:#231F20;}
</style>
<g>
	<path class="st0" d="M46,497c-4.5,0-8-3.7-7.9-8.2C42.5,383.8,128.9,300,235,300h42c106.1,0,192.5,83.8,196.8,188.8
		c0.2,4.5-3.4,8.2-7.9,8.2H46z"/>
	<g>
		<path class="st1" d="M256,30c57.9,0,105,47.1,105,105s-47.1,105-105,105s-105-47.1-105-105S198.1,30,256,30 M256,0
			c-74.6,0-135,60.4-135,135s60.4,135,135,135s135-60.4,135-135S330.6,0,256,0L256,0z"/>
	</g>
</g>
</svg>
